<?xml version="1.0" encoding="UTF-8"?><svg id="_層_1" xmlns="http://www.w3.org/2000/svg" xmlns:xlink="http://www.w3.org/1999/xlink" viewBox="0 0 56.67 72.81"><defs><style>.cls-1{fill:#fff;}.cls-2{filter:url(#drop-shadow-1);}.cls-3{fill:#333;}.cls-4{fill:#0a36ef;}.cls-5{filter:url(#drop-shadow-2);}</style><filter id="drop-shadow-1" filterUnits="userSpaceOnUse"><feOffset dx="3" dy="3"/><feGaussianBlur result="blur" stdDeviation="3"/><feFlood flood-color="#000" flood-opacity=".75"/><feComposite in2="blur" operator="in"/><feComposite in="SourceGraphic"/></filter><filter id="drop-shadow-2" filterUnits="userSpaceOnUse"><feOffset dx="3" dy="3"/><feGaussianBlur result="blur-2" stdDeviation="3"/><feFlood flood-color="#000" flood-opacity=".75"/><feComposite in2="blur-2" operator="in"/><feComposite in="SourceGraphic"/></filter></defs><g class="cls-2"><circle class="cls-3" cx="29.09" cy="29.48" r="27.58"/><polygon class="cls-3" points="17.27 41.86 29.09 72.81 41.47 41.86 17.27 41.86"/></g><g class="cls-5"><circle class="cls-1" cx="27.58" cy="27.58" r="27.58"/><polygon class="cls-1" points="15.76 39.96 27.58 70.91 39.96 39.96 15.76 39.96"/></g><g><path class="cls-4" d="M19.82,23.36c-.24,1.71-3.56,2.8-4.51,3.07,.74-.16,2.83-.51,2.95-.54,.96-.26,2.25-.81,2.89-1.67,.14-.19,.24-.38,.31-.56,.37-1.01-.2-2.02-1.17-2.15-1.46-.19-2.75-.15-3.82-.01-.08,.2-.17,.4-.26,.59,1.84-.08,3.79,.1,3.62,1.27Z"/><path class="cls-4" d="M34.51,31.91c.45,.49,.82,.99,1.12,1.48,.05-1.14-.46-2.39-1.59-3.63-3.08-3.37-9.58-5.35-14.52-4.41-.9,.17-1.69,.43-2.36,.76,6.22-.63,13.72,1.82,17.36,5.81h0Z"/><path class="cls-4" d="M19.74,15.32c-.27-.3-.45-.65-.48-1.04-.13-1.36,1.43-2.64,3.49-2.86,1.34-.14,2.56,.2,3.28,.84-2.47,.52-4.78,1.39-6.29,3.06h0Z"/><path class="cls-4" d="M24.99,13.7c-.55-.11-1.21-.05-1.84,.21-.96,.39-1.74,.72-1.89,1.46,.26,.1,1.31,.57,1.83,.75,.44-.93,1.09-1.76,1.91-2.42Z"/><path class="cls-4" d="M32.41,20.41c-1.82-.25-3.71-.39-5.28,.69-2.17,1.5-2.22,4.65-1.8,6.96,.27,1.52,.82,2.96,1.38,4.39,.27-1.65,.51-3.31,.78-4.96,.19-1.2,.32-3.33,1.65-3.91,1.17-.5,3.01,.16,4.23,.22,.13,0,.27,.01,.41,.02-.05-.3-.11-.59-.16-.85-.22-.78-.34-1.88-1.21-2.56Z"/><path class="cls-4" d="M35.59,14.82c-2.51-1.35-5.66-2.01-7.52-1.54-2.5,.64-3.52,2.08-4.75,4.15-1.17,1.97-2.61,3.51-4.17,5.17-.19,.2-.96,.84-.65,1.13,.34,.31,1.84-.56,2.12-.71,1.4-.71,2.8-2.4,3.97-3.43,.6-.53,.95-.99,1.48-1.58,.51-.57,.65-.92,1.29-1.38,2.89-2.08,7.84-1.09,9.37,2.45,.96,2.22-1.17,1.73-2.58,1.58-.57-.06-1.16-.16-1.76-.24,.87,.68,.98,1.78,1.21,2.56,.05,.26,.11,.55,.16,.85,1.69,.08,3.75,.1,4.74-1.27,1.88-2.6,.28-6.01-2.92-7.72Z"/><path class="cls-4" d="M35.9,19.91c.34-.61,.18-1.54-.32-1.98-2.23-1.96-5.3-2.21-5.3-2.21,0,0,5.27,1.91,4.79,3.4-.43,1.35-2.99,.59-2.99,.59,.08-.02,1.71,.67,1.8,.69,.55,.15,1.32,.21,1.78-.18,.1-.09,.18-.19,.25-.3Z"/><path class="cls-4" d="M12.27,39.85c-2.63-2.85-2.51-7.26,.28-9.83,2.79-2.57,7.19-2.34,9.82,.51,1.81,1.96,2.32,4.66,1.55,6.98,1.22-2.67,.81-5.93-1.31-8.23-2.81-3.05-7.57-3.24-10.62-.43-3.05,2.81-3.24,7.57-.43,10.62,.73,.8,1.6,1.4,2.53,1.8-.66-.36-1.28-.84-1.83-1.43Z"/><path class="cls-4" d="M41.76,39.85c2.63-2.85,2.51-7.26-.28-9.83-2.79-2.57-7.19-2.34-9.82,.51-1.81,1.96-2.32,4.66-1.55,6.98-1.22-2.67-.81-5.93,1.31-8.23,2.81-3.05,7.57-3.24,10.62-.43,3.05,2.81,3.24,7.57,.43,10.62-.73,.8-1.6,1.4-2.53,1.8,.66-.36,1.28-.84,1.83-1.43Z"/><path class="cls-4" d="M24.46,13.49c-.55-.11-1.21-.05-1.84,.21-.96,.39-1.74,.72-1.89,1.46,.26,.1,1.31,.57,1.83,.75,.44-.93,1.09-1.76,1.91-2.42Z"/></g></svg>