<?xml version="1.0" encoding="UTF-8"?>
<svg id="_層_1" data-name="圖層 1" xmlns="http://www.w3.org/2000/svg" viewBox="0 0 74.4 92.01">
  <rect x="13.48" y="15.54" width="13.56" height="33.56" transform="translate(-14.64 47.69) rotate(-81.69)" style="fill: #d30128;"/>
  <rect x="-3.94" y="48.92" width="43.35" height="29.5" transform="translate(-47.83 72.01) rotate(-81.69)" style="fill: #d30128;"/>
  <path d="M33.57,6.07C26.84-3.13,16.4-.26,12.65,4.14c-3.75,4.4-4.8,10.6,2.64,14.8,7.44,4.2,17.52,6.8,23.5,4.56,0,0,1.14-8.74-5.22-17.44Zm-10.24,11.08c-4.02-2.26-7.2-6.72-5.17-9.09s6.36-1.27,11.22,2.49c4.87,3.76,6.28,10.24,6.28,10.24-3.23,1.21-8.31-1.37-12.33-3.64Z" style="fill: #d30128;"/>
  <rect x="50.15" y="21" width="13.56" height="33.34" transform="translate(11.42 88.55) rotate(-81.69)" style="fill: #d30128;"/>
  <rect x="28.72" y="53.79" width="43.35" height="29.31" transform="translate(-24.62 108.41) rotate(-81.69)" style="fill: #d30128;"/>
  <path d="M51.75,8.73c9.02-6.9,18.14-1.16,20.46,4.12,2.32,5.28,1.54,11.53-6.74,13.43-8.28,1.9-18.61,1.52-23.67-2.33,0,0,1.41-8.7,9.95-15.22Zm6.59,13.54c4.47-1.02,8.77-4.39,7.52-7.24s-5.69-3.03-11.39-.82c-5.7,2.22-8.89,8.03-8.89,8.03,2.73,2.08,8.3,1.05,12.77,.03Z" style="fill: #d30128;"/>
</svg>