<?xml version="1.0" encoding="utf-8"?>
<!-- Generator: Adobe Illustrator 26.3.1, SVG Export Plug-In . SVG Version: 6.00 Build 0)  -->
<svg version="1.1" id="_層_1" xmlns="http://www.w3.org/2000/svg" xmlns:xlink="http://www.w3.org/1999/xlink" x="0px" y="0px"
	 viewBox="0 0 57.2 72.9" style="enable-background:new 0 0 57.2 72.9;" xml:space="preserve">
<style type="text/css">
	.st0{fill:#FFFFFF;}
	.st1{fill-rule:evenodd;clip-rule:evenodd;fill:#484342;}
	.st2{fill-rule:evenodd;clip-rule:evenodd;fill:#6D6B6A;}
	.st3{fill-rule:evenodd;clip-rule:evenodd;fill:#5A5554;}
	.st4{fill:#F92728;}
</style>
<g>
	<circle cx="29.6" cy="29.6" r="27.6"/>
	<polygon points="17.8,42 29.6,72.9 42,42 	"/>
</g>
<g>
	<circle class="st0" cx="27.6" cy="27.6" r="27.6"/>
	<polygon class="st0" points="15.8,40 27.6,70.9 40,40 	"/>
</g>
<rect x="-5.2" y="-73.5" class="st1" width="0.3" height="0.5"/>
<path class="st2" d="M-5-73.4c0.5,0,0.9-0.4,0.9-0.9c0-0.5-0.4-0.9-0.9-0.9c-0.5,0-0.9,0.4-0.9,0.9C-5.9-73.8-5.5-73.4-5-73.4
	L-5-73.4z"/>
<g>
	<rect x="12.4" y="12.1" class="st3" width="1.4" height="27.9"/>
	<rect x="10.5" y="40.1" class="st3" width="5.1" height="1.4"/>
	<rect x="9.5" y="41.4" class="st2" width="7.2" height="1.4"/>
	<rect x="12.4" y="12.1" class="st2" width="0.7" height="27.9"/>
	<rect x="43.6" y="12.1" class="st3" width="1.4" height="27.9"/>
	<rect x="41.8" y="40.1" class="st3" width="5.1" height="1.4"/>
	<rect x="40.7" y="41.4" class="st2" width="7.2" height="1.4"/>
	<rect x="43.6" y="12.1" class="st2" width="0.7" height="27.9"/>
	<g>
		<path class="st4" d="M13.8,34.9h30V14.8h-30V34.9z"/>
	</g>
	<g>
		<path class="st0" d="M21.4,23.5h-1.9V23c0-0.3,0-0.4-0.1-0.5s-0.1-0.1-0.2-0.1c-0.1,0-0.2,0-0.3,0.1s-0.1,0.2-0.1,0.4
			c0,0.3,0,0.4,0.1,0.6c0.1,0.1,0.3,0.3,0.6,0.5c0.9,0.5,1.5,1,1.7,1.3c0.2,0.3,0.3,0.9,0.3,1.6c0,0.5-0.1,1-0.2,1.2
			s-0.4,0.5-0.7,0.7c-0.4,0.2-0.8,0.3-1.3,0.3c-0.5,0-1-0.1-1.4-0.3c-0.4-0.2-0.6-0.5-0.7-0.8S17,27.2,17,26.6v-0.5h1.9v0.9
			c0,0.3,0,0.5,0.1,0.6s0.1,0.1,0.3,0.1s0.2-0.1,0.3-0.2c0.1-0.1,0.1-0.3,0.1-0.5c0-0.5-0.1-0.7-0.2-0.9c-0.1-0.1-0.4-0.4-0.9-0.7
			c-0.5-0.3-0.8-0.6-1-0.7c-0.2-0.1-0.3-0.4-0.4-0.6s-0.2-0.6-0.2-1c0-0.6,0.1-1,0.2-1.3c0.2-0.3,0.4-0.5,0.7-0.6
			c0.3-0.2,0.7-0.2,1.2-0.2c0.5,0,1,0.1,1.3,0.3c0.4,0.2,0.6,0.4,0.7,0.6c0.1,0.3,0.2,0.7,0.2,1.3V23.5z"/>
		<path class="st0" d="M26.2,21.2v1.5H25v6.2h-2v-6.2h-1.2v-1.5H26.2z"/>
		<path class="st0" d="M29.7,21.2l1.1,7.7h-2l-0.1-1.4H28l-0.1,1.4h-2.1l1-7.7H29.7z M28.7,26.1c-0.1-0.9-0.2-1.9-0.3-3.2
			c-0.2,1.5-0.3,2.6-0.4,3.2H28.7z"/>
		<path class="st0" d="M31.2,21.2h1.4c0.9,0,1.6,0,1.9,0.1c0.3,0.1,0.6,0.3,0.8,0.6c0.2,0.3,0.3,0.8,0.3,1.4c0,0.6-0.1,1-0.2,1.2
			c-0.1,0.2-0.4,0.3-0.9,0.4c0.4,0.1,0.7,0.2,0.8,0.4c0.1,0.2,0.2,0.3,0.3,0.5c0,0.1,0,0.5,0,1.1v2h-1.9v-2.6c0-0.4,0-0.7-0.1-0.8
			s-0.2-0.1-0.5-0.1v3.5h-2V21.2z M33.2,22.5v1.7c0.2,0,0.4,0,0.5-0.1c0.1-0.1,0.1-0.3,0.1-0.6v-0.4c0-0.2,0-0.4-0.1-0.5
			S33.5,22.5,33.2,22.5z"/>
		<path class="st0" d="M40.5,21.2v1.5h-1.2v6.2h-2v-6.2h-1.2v-1.5H40.5z"/>
	</g>
</g>
</svg>
